<?xml version="1.0" encoding="UTF-8"?>
<svg xmlns="http://www.w3.org/2000/svg" xmlns:xlink="http://www.w3.org/1999/xlink" width="539.83pt" height="620.98pt" viewBox="0 0 539.83 620.98" version="1.1">
<defs>
<clipPath id="clip1">
  <path d="M 0 0 L 539.828125 0 L 539.828125 620.980469 L 0 620.980469 Z M 0 0 "/>
</clipPath>
</defs>
<g id="surface1">
<path style=" stroke:none;fill-rule:nonzero;fill:rgb(100%,90.59906%,8.599854%);fill-opacity:1;" d="M 435.019531 484.054688 C 494.296875 411.515625 550.460938 317.132813 535.636719 179.074219 C 527.714844 105.25 506.078125 56.066406 506.078125 56.066406 C 452.960938 32.433594 363.851563 1.878906 269.914063 1.878906 C 175.980469 1.878906 86.875 32.433594 33.753906 56.066406 C 33.753906 56.066406 12.117188 105.25 4.191406 179.074219 C -10.628906 317.132813 45.53125 411.515625 104.8125 484.054688 C 162.320313 554.429688 269.914063 618.800781 269.914063 618.800781 C 269.914063 618.800781 377.507813 554.429688 435.019531 484.054688 "/>
<g clip-path="url(#clip1)" clip-rule="nonzero">
<path style=" stroke:none;fill-rule:nonzero;fill:rgb(13.699341%,12.199402%,12.5%);fill-opacity:1;" d="M 32.992188 54.359375 L 32.332031 54.652344 L 32.042969 55.3125 C 31.824219 55.808594 10.195313 105.609375 2.332031 178.875 C -13.035156 322.035156 48.25 417.800781 103.363281 485.238281 C 160.417969 555.058594 267.871094 619.761719 268.953125 620.40625 L 269.914063 620.980469 L 270.875 620.40625 C 271.953125 619.761719 379.410156 555.058594 436.46875 485.238281 C 491.578125 417.800781 552.867188 322.035156 537.5 178.875 C 529.632813 105.609375 508.007813 55.808594 507.792969 55.3125 L 507.5 54.652344 L 506.839844 54.359375 C 461.214844 34.058594 369.769531 0.00390625 269.914063 0.00390625 C 170.0625 0.00390625 78.617188 34.058594 32.992188 54.359375 M 269.914063 3.75 C 368.617188 3.75 459.085938 37.277344 504.648438 57.488281 C 507.214844 63.59375 526.46875 111.183594 533.777344 179.273438 C 535.394531 194.335938 536.152344 208.867188 536.152344 222.894531 C 536.152344 340.90625 482.410156 423.101563 433.566406 482.867188 C 379.683594 548.804688 280.378906 610.230469 269.914063 616.609375 C 259.449219 610.230469 160.144531 548.804688 106.261719 482.867188 C 57.417969 423.101563 3.679688 340.90625 3.679688 222.894531 C 3.679688 208.867188 4.4375 194.335938 6.054688 179.273438 C 13.363281 111.183594 32.621094 63.59375 35.1875 57.488281 C 80.746094 37.277344 171.214844 3.75 269.914063 3.75 "/>
</g>
<path style=" stroke:none;fill-rule:nonzero;fill:rgb(100%,100%,100%);fill-opacity:1;" d="M 269.917969 592.585938 C 298.515625 574.308594 374.160156 523.394531 417.804688 469.988281 C 453.398438 426.433594 491.722656 370.460938 507.878906 296.609375 C 512.890625 273.6875 514.445313 249.046875 514.445313 222.519531 C 514.445313 209.300781 513.730469 195.617188 512.210938 181.445313 C 506.777344 130.855469 493.300781 92.238281 486.929688 74.96875 C 486.691406 74.320313 486.171875 72.9375 486.171875 72.9375 C 426.074219 95.664063 351.152344 109.148438 269.914063 109.148438 C 188.679688 109.148438 113.757813 95.664063 53.660156 72.9375 C 53.660156 72.9375 53.140625 74.320313 52.902344 74.96875 C 46.53125 92.238281 33.054688 130.855469 27.621094 181.445313 C 26.101563 195.617188 25.386719 209.300781 25.386719 222.519531 C 25.386719 249.046875 26.9375 273.6875 31.953125 296.609375 C 48.109375 370.460938 86.433594 426.433594 122.027344 469.988281 C 165.671875 523.394531 241.316406 574.308594 269.914063 592.585938 L 269.917969 592.585938 "/>
<path style=" stroke:none;fill-rule:nonzero;fill:rgb(13.699341%,12.199402%,12.5%);fill-opacity:1;" d="M 485.507813 71.183594 C 423.074219 94.796875 348.523438 107.273438 269.914063 107.273438 C 191.304688 107.273438 116.753906 94.796875 54.320313 71.183594 L 52.5625 70.519531 L 51.144531 74.320313 C 46.292969 87.472656 31.53125 127.496094 25.761719 181.246094 C 24.269531 195.132813 23.515625 209.019531 23.515625 222.519531 C 23.515625 252.726563 25.617188 276.394531 30.125 297.011719 C 46.933594 373.839844 87.292969 430.441406 120.578125 471.171875 C 164.089844 524.417969 238.800781 574.921875 268.902344 594.164063 L 269.914063 594.808594 L 270.925781 594.164063 C 301.027344 574.921875 375.742188 524.417969 419.253906 471.171875 C 452.539063 430.441406 492.898438 373.839844 509.707031 297.011719 C 514.214844 276.394531 516.316406 252.726563 516.316406 222.519531 C 516.316406 209.023438 515.5625 195.136719 514.070313 181.246094 C 508.300781 127.503906 493.539063 87.476563 488.6875 74.320313 L 487.269531 70.515625 L 485.507813 71.183594 M 485.054688 75.304688 C 485.085938 75.386719 485.171875 75.617188 485.171875 75.617188 C 489.984375 88.664063 504.628906 128.367188 510.347656 181.644531 C 511.824219 195.402344 512.570313 209.15625 512.570313 222.519531 C 512.570313 252.449219 510.5 275.863281 506.050781 296.207031 C 489.410156 372.265625 449.375 428.398438 416.355469 468.800781 C 373.628906 521.085938 300.453125 570.785156 269.914063 590.363281 C 239.378906 570.785156 166.203125 521.089844 123.476563 468.800781 C 90.457031 428.398438 50.421875 372.265625 33.78125 296.207031 C 29.332031 275.867188 27.257813 252.449219 27.257813 222.519531 C 27.257813 209.152344 28.007813 195.402344 29.484375 181.644531 C 35.203125 128.355469 49.847656 88.660156 54.660156 75.617188 C 54.660156 75.617188 54.707031 75.488281 54.773438 75.304688 C 117.269531 98.648438 191.585938 111.019531 269.914063 111.019531 C 348.246094 111.019531 422.5625 98.648438 485.054688 75.304688 "/>
<path style=" stroke:none;fill-rule:nonzero;fill:rgb(13.699341%,12.199402%,12.5%);fill-opacity:1;" d="M 42.578125 160.242188 L 98.089844 166.535156 L 96.054688 184.484375 C 95.285156 191.28125 94.503906 195.6875 93.714844 197.6875 C 92.519531 200.769531 90.40625 203.222656 87.375 205.046875 C 84.339844 206.867188 80.613281 207.53125 76.195313 207.03125 C 72.785156 206.644531 69.988281 205.703125 67.804688 204.207031 C 65.621094 202.710938 63.972656 200.9375 62.863281 198.890625 C 61.753906 196.84375 61.09375 194.8125 60.886719 192.800781 C 60.660156 190.074219 60.832031 186.1875 61.40625 181.132813 L 62.230469 173.851563 L 41.304688 171.480469 L 42.578125 160.242188 M 87.417969 176.707031 L 71.628906 174.917969 L 70.933594 181.019531 C 70.4375 185.417969 70.394531 188.386719 70.808594 189.9375 C 71.222656 191.484375 72.003906 192.746094 73.148438 193.730469 C 74.289063 194.710938 75.6875 195.296875 77.332031 195.484375 C 79.355469 195.714844 81.09375 195.3125 82.542969 194.28125 C 83.992188 193.25 84.984375 191.847656 85.519531 190.074219 C 85.921875 188.773438 86.351563 186.113281 86.808594 182.09375 L 87.417969 176.707031 "/>
<path style=" stroke:none;fill-rule:nonzero;fill:rgb(13.699341%,12.199402%,12.5%);fill-opacity:1;" d="M 37.558594 214.558594 L 93.414063 213.359375 L 94.296875 254.691406 L 84.84375 254.894531 L 84.203125 224.871094 L 71.820313 225.136719 L 72.417969 253.113281 L 62.964844 253.3125 L 62.367188 225.339844 L 47.257813 225.660156 L 47.921875 256.757813 L 38.46875 256.960938 L 37.558594 214.558594 "/>
<path style=" stroke:none;fill-rule:nonzero;fill:rgb(13.699341%,12.199402%,12.5%);fill-opacity:1;" d="M 42.605469 286.640625 L 88.03125 277.125 L 84.652344 260.996094 L 93.910156 259.058594 L 102.984375 302.382813 L 93.726563 304.324219 L 90.351563 288.195313 L 44.925781 297.710938 L 42.605469 286.640625 "/>
<path style=" stroke:none;fill-rule:nonzero;fill:rgb(13.699341%,12.199402%,12.5%);fill-opacity:1;" d="M 52.609375 327.488281 L 104.339844 306.382813 L 113.277344 328.289063 C 115.523438 333.796875 116.691406 337.988281 116.78125 340.863281 C 116.867188 343.742188 116.03125 346.410156 114.265625 348.882813 C 112.5 351.355469 110.085938 353.214844 107.027344 354.464844 C 103.140625 356.046875 99.46875 356.222656 96.015625 354.988281 C 92.558594 353.75 89.578125 351.011719 87.078125 346.765625 C 86.675781 349.542969 85.984375 351.984375 85.007813 354.085938 C 84.027344 356.1875 82.035156 359.296875 79.027344 363.410156 L 71.507813 373.800781 L 66.421875 361.335938 L 74.648438 349.308594 C 77.574219 345 79.355469 342.140625 80 340.734375 C 80.640625 339.324219 80.933594 337.992188 80.871094 336.730469 C 80.808594 335.472656 80.292969 333.652344 79.320313 331.265625 L 78.460938 329.15625 L 56.882813 337.960938 L 52.609375 327.488281 M 86.675781 325.804688 L 89.804688 333.476563 C 91.832031 338.449219 93.3125 341.464844 94.242188 342.53125 C 95.171875 343.59375 96.300781 344.265625 97.625 344.542969 C 98.949219 344.816406 100.394531 344.640625 101.953125 344.003906 C 103.699219 343.289063 104.921875 342.253906 105.621094 340.890625 C 106.320313 339.53125 106.46875 337.949219 106.066406 336.15625 C 105.839844 335.265625 104.871094 332.71875 103.15625 328.519531 L 99.855469 320.429688 L 86.675781 325.804688 "/>
<path style=" stroke:none;fill-rule:nonzero;fill:rgb(13.699341%,12.199402%,12.5%);fill-opacity:1;" d="M 97.820313 364.644531 C 102.683594 361.675781 107.203125 359.910156 111.390625 359.347656 C 114.480469 358.949219 117.5625 359.09375 120.640625 359.785156 C 123.714844 360.480469 126.398438 361.660156 128.695313 363.320313 C 131.761719 365.519531 134.480469 368.554688 136.847656 372.433594 C 141.128906 379.449219 142.375 386.394531 140.582031 393.265625 C 138.792969 400.140625 134.011719 405.949219 126.242188 410.691406 C 118.539063 415.394531 111.234375 416.984375 104.332031 415.460938 C 97.429688 413.9375 91.84375 409.679688 87.574219 402.683594 C 83.253906 395.601563 81.980469 388.652344 83.761719 381.828125 C 85.539063 375.007813 90.226563 369.28125 97.820313 364.644531 M 104.191406 374.347656 C 98.789063 377.644531 95.453125 381.390625 94.1875 385.589844 C 92.925781 389.785156 93.460938 393.800781 95.804688 397.640625 C 98.148438 401.476563 101.453125 403.78125 105.722656 404.554688 C 109.992188 405.328125 114.890625 404.027344 120.425781 400.648438 C 125.894531 397.3125 129.242188 393.621094 130.46875 389.585938 C 131.695313 385.546875 131.097656 381.542969 128.679688 377.574219 C 126.253906 373.605469 122.941406 371.238281 118.734375 370.472656 C 114.53125 369.703125 109.683594 370.996094 104.191406 374.347656 "/>
<path style=" stroke:none;fill-rule:nonzero;fill:rgb(13.699341%,12.199402%,12.5%);fill-opacity:1;" d="M 108.476563 432.519531 L 152.289063 398.648438 L 159.207031 407.597656 L 122.875 435.683594 L 140.050781 457.898438 L 132.566406 463.683594 L 108.476563 432.519531 "/>
<path style=" stroke:none;fill-rule:nonzero;fill:rgb(13.699341%,12.199402%,12.5%);fill-opacity:1;" d="M 174.957031 428.121094 L 182.863281 436.210938 L 161.171875 457.410156 C 157.730469 460.773438 155.597656 463.054688 154.773438 464.25 C 153.472656 466.195313 152.953125 468.300781 153.230469 470.570313 C 153.503906 472.835938 154.742188 475.09375 156.9375 477.339844 C 159.171875 479.621094 161.320313 480.886719 163.394531 481.132813 C 165.464844 481.375 167.296875 480.945313 168.894531 479.847656 C 170.488281 478.746094 172.871094 476.648438 176.042969 473.550781 L 198.195313 451.898438 L 206.101563 459.988281 L 185.074219 480.539063 C 180.265625 485.238281 176.65625 488.339844 174.246094 489.84375 C 171.835938 491.347656 169.371094 492.179688 166.863281 492.34375 C 164.351563 492.507813 161.730469 492.003906 159.003906 490.828125 C 156.273438 489.660156 153.367188 487.492188 150.273438 484.332031 C 146.546875 480.515625 144.160156 477.191406 143.113281 474.355469 C 142.070313 471.519531 141.691406 468.839844 141.984375 466.316406 C 142.277344 463.792969 143.019531 461.59375 144.214844 459.71875 C 145.992188 456.949219 149.121094 453.375 153.601563 448.996094 L 174.957031 428.121094 "/>
<path style=" stroke:none;fill-rule:nonzero;fill:rgb(13.699341%,12.199402%,12.5%);fill-opacity:1;" d="M 175.078125 506.710938 L 210.585938 464.214844 L 219.265625 471.46875 L 189.820313 506.710938 L 211.367188 524.714844 L 205.300781 531.972656 L 175.078125 506.710938 "/>
<path style=" stroke:none;fill-rule:nonzero;fill:rgb(13.699341%,12.199402%,12.5%);fill-opacity:1;" d="M 355.289063 515.074219 L 317.640625 473.796875 L 330.988281 461.625 C 336.042969 457.015625 339.53125 454.210938 341.441406 453.222656 C 344.367188 451.691406 347.574219 451.238281 351.058594 451.859375 C 354.542969 452.484375 357.78125 454.4375 360.78125 457.722656 C 363.09375 460.257813 364.578125 462.808594 365.238281 465.371094 C 365.898438 467.933594 365.96875 470.351563 365.460938 472.625 C 364.945313 474.898438 364.105469 476.859375 362.9375 478.511719 C 361.316406 480.714844 358.625 483.527344 354.867188 486.957031 L 349.453125 491.890625 L 363.644531 507.453125 L 355.289063 515.074219 M 332.371094 473.164063 L 343.082031 484.90625 L 347.617188 480.765625 C 350.886719 477.785156 352.875 475.574219 353.582031 474.136719 C 354.289063 472.699219 354.535156 471.234375 354.320313 469.742188 C 354.105469 468.25 353.441406 466.890625 352.324219 465.667969 C 350.949219 464.160156 349.378906 463.320313 347.609375 463.144531 C 345.839844 462.96875 344.167969 463.367188 342.601563 464.351563 C 341.4375 465.066406 339.363281 466.785156 336.378906 469.511719 L 332.371094 473.164063 "/>
<path style=" stroke:none;fill-rule:nonzero;fill:rgb(13.699341%,12.199402%,12.5%);fill-opacity:1;" d="M 396.144531 476.660156 L 353.394531 441.457031 L 360.585938 432.726563 L 396.03125 461.917969 L 413.882813 440.242188 L 421.1875 446.253906 L 396.144531 476.660156 "/>
<path style=" stroke:none;fill-rule:nonzero;fill:rgb(13.699341%,12.199402%,12.5%);fill-opacity:1;" d="M 402.347656 426.300781 C 397.632813 423.109375 394.148438 419.726563 391.902344 416.152344 C 390.253906 413.507813 389.109375 410.640625 388.464844 407.558594 C 387.820313 404.46875 387.777344 401.539063 388.335938 398.761719 C 389.0625 395.058594 390.695313 391.324219 393.242188 387.5625 C 397.847656 380.757813 403.652344 376.742188 410.648438 375.519531 C 417.648438 374.296875 424.917969 376.234375 432.453125 381.335938 C 439.929688 386.394531 444.40625 392.378906 445.886719 399.289063 C 447.363281 406.203125 445.804688 413.054688 441.210938 419.839844 C 436.5625 426.710938 430.765625 430.75 423.824219 431.964844 C 416.878906 433.175781 409.71875 431.285156 402.347656 426.300781 M 408.535156 416.480469 C 413.777344 420.027344 418.570313 421.503906 422.914063 420.914063 C 427.257813 420.324219 430.6875 418.171875 433.210938 414.445313 C 435.726563 410.722656 436.453125 406.757813 435.386719 402.554688 C 434.316406 398.347656 431.101563 394.429688 425.730469 390.796875 C 420.425781 387.203125 415.679688 385.691406 411.496094 386.25 C 407.3125 386.808594 403.917969 389.011719 401.3125 392.859375 C 398.707031 396.710938 397.925781 400.710938 398.972656 404.855469 C 400.023438 409 403.210938 412.875 408.535156 416.480469 "/>
<path style=" stroke:none;fill-rule:nonzero;fill:rgb(13.699341%,12.199402%,12.5%);fill-opacity:1;" d="M 461.636719 384.355469 L 412.167969 358.402344 L 417.421875 348.382813 L 466.894531 374.339844 L 461.636719 384.355469 "/>
<path style=" stroke:none;fill-rule:nonzero;fill:rgb(13.699341%,12.199402%,12.5%);fill-opacity:1;" d="M 475.566406 357.28125 L 423.203125 337.804688 L 437.617188 299.054688 L 446.484375 302.355469 L 436.011719 330.5 L 447.617188 334.816406 L 457.375 308.589844 L 466.238281 311.886719 L 456.484375 338.113281 L 470.648438 343.382813 L 481.492188 314.230469 L 490.355469 317.527344 L 475.566406 357.28125 "/>
<path style=" stroke:none;fill-rule:nonzero;fill:rgb(13.699341%,12.199402%,12.5%);fill-opacity:1;" d="M 476.523438 300.949219 L 477.171875 289.898438 C 480.921875 289.820313 483.804688 288.917969 485.828125 287.195313 C 487.847656 285.476563 489.121094 282.925781 489.65625 279.546875 C 490.214844 275.96875 489.878906 273.152344 488.648438 271.097656 C 487.414063 269.046875 485.78125 267.859375 483.75 267.539063 C 482.445313 267.335938 481.273438 267.542969 480.242188 268.164063 C 479.203125 268.785156 478.195313 269.996094 477.222656 271.792969 C 476.570313 273.027344 475.304688 275.871094 473.433594 280.328125 C 471.03125 286.0625 468.566406 289.964844 466.035156 292.03125 C 462.472656 294.9375 458.515625 296.050781 454.15625 295.367188 C 451.355469 294.929688 448.855469 293.71875 446.664063 291.742188 C 444.472656 289.765625 442.972656 287.175781 442.167969 283.972656 C 441.363281 280.773438 441.292969 277.050781 441.957031 272.804688 C 443.046875 265.875 445.394531 260.898438 449.007813 257.875 C 452.621094 254.851563 456.996094 253.652344 462.136719 254.28125 L 460.765625 265.515625 C 457.851563 265.542969 455.648438 266.242188 454.160156 267.613281 C 452.671875 268.984375 451.679688 271.234375 451.1875 274.363281 C 450.679688 277.59375 450.949219 280.226563 451.992188 282.265625 C 452.660156 283.574219 453.710938 284.34375 455.136719 284.566406 C 456.441406 284.769531 457.644531 284.394531 458.742188 283.4375 C 460.144531 282.21875 461.902344 279.003906 464.019531 273.792969 C 466.140625 268.578125 468.085938 264.785156 469.859375 262.40625 C 471.636719 260.027344 473.824219 258.289063 476.429688 257.195313 C 479.035156 256.101563 482.082031 255.828125 485.574219 256.378906 C 488.738281 256.875 491.5625 258.21875 494.050781 260.410156 C 496.535156 262.601563 498.199219 265.40625 499.039063 268.832031 C 499.878906 272.253906 499.925781 276.363281 499.171875 281.160156 C 498.078125 288.140625 495.609375 293.242188 491.777344 296.472656 C 487.941406 299.703125 482.859375 301.195313 476.523438 300.949219 "/>
<path style=" stroke:none;fill-rule:nonzero;fill:rgb(13.699341%,12.199402%,12.5%);fill-opacity:1;" d="M 501.933594 230.8125 L 455.523438 230.613281 L 455.453125 247.089844 L 445.996094 247.050781 L 446.1875 202.785156 L 455.644531 202.824219 L 455.574219 219.300781 L 501.984375 219.503906 L 501.933594 230.8125 "/>
<path style=" stroke:none;fill-rule:nonzero;fill:rgb(13.699341%,12.199402%,12.5%);fill-opacity:1;" d="M 500.320313 187.550781 L 444.78125 193.605469 L 443.558594 182.363281 L 499.09375 176.308594 L 500.320313 187.550781 "/>
<path style=" stroke:none;fill-rule:nonzero;fill:rgb(13.699341%,12.199402%,12.5%);fill-opacity:1;" d="M 432.757813 173.195313 C 407.476563 180.84375 340.992188 198.632813 269.914063 198.632813 C 198.839844 198.632813 132.355469 180.84375 107.070313 173.195313 L 105.027344 172.574219 L 104.683594 174.683594 C 104.097656 178.257813 103.554688 183.914063 103.074219 188.902344 L 102.410156 195.535156 C 101.230469 206.15625 100.628906 216.722656 100.628906 226.945313 C 100.628906 250.296875 102.125 267.765625 105.335938 281.921875 C 118.5 339.945313 152.054688 384.992188 179.816406 417.753906 C 203.59375 445.8125 241.351563 474.5625 268.84375 493.742188 L 269.914063 494.488281 L 270.988281 493.742188 C 298.476563 474.5625 336.242188 445.808594 360.011719 417.753906 C 387.777344 384.992188 421.328125 339.945313 434.496094 281.921875 C 437.707031 267.765625 439.199219 250.296875 439.199219 226.945313 C 439.199219 216.726563 438.601563 206.15625 437.421875 195.535156 L 436.753906 188.886719 C 436.277344 183.902344 435.734375 178.253906 435.148438 174.683594 L 434.804688 172.574219 L 432.757813 173.195313 "/>
<path style=" stroke:none;fill-rule:nonzero;fill:rgb(13.699341%,12.199402%,12.5%);fill-opacity:1;" d="M 206.949219 132.308594 C 206.949219 167.023438 235.195313 195.265625 269.910156 195.265625 C 304.628906 195.265625 332.875 167.023438 332.875 132.308594 C 332.875 97.597656 304.628906 69.355469 269.910156 69.355469 C 235.195313 69.355469 206.949219 97.597656 206.949219 132.308594 "/>
<path style=" stroke:none;fill-rule:nonzero;fill:rgb(100%,100%,100%);fill-opacity:1;" d="M 291.457031 138.675781 L 270.828125 153.664063 L 270.847656 153.761719 L 270.847656 172.773438 L 270.917969 172.804688 L 288.339844 179.710938 L 288.398438 179.660156 L 306.949219 166.648438 L 306.960938 166.484375 L 307.078125 148.714844 L 307.070313 148.566406 L 291.53125 138.601563 L 291.457031 138.675781 "/>
<path style=" stroke:none;fill-rule:nonzero;fill:rgb(100%,100%,100%);fill-opacity:1;" d="M 317.984375 166.847656 C 309.847656 178.140625 297.839844 186.460938 283.914063 189.847656 L 283.804688 189.871094 L 288.597656 181.824219 L 288.710938 181.730469 L 307.78125 168.355469 L 307.882813 168.332031 L 318.050781 166.757813 L 317.984375 166.847656 "/>
<path style=" stroke:none;fill-rule:nonzero;fill:rgb(100%,100%,100%);fill-opacity:1;" d="M 315.078125 94.054688 C 323.839844 104.382813 329.128906 117.738281 329.128906 132.308594 C 329.128906 135.191406 328.921875 138.019531 328.523438 140.792969 L 328.503906 141.011719 L 322.488281 133.089844 L 322.457031 133.066406 L 314.222656 102.136719 L 314.242188 102.085938 L 314.984375 93.945313 L 315.078125 94.054688 "/>
<path style=" stroke:none;fill-rule:nonzero;fill:rgb(100%,100%,100%);fill-opacity:1;" d="M 294.316406 100.085938 L 312.890625 104.847656 L 313.011719 104.859375 L 320.5625 133.222656 L 320.476563 133.277344 L 307.765625 146.617188 L 307.652344 146.71875 L 292.023438 136.691406 L 291.921875 136.414063 L 284.175781 112.574219 L 284.238281 112.488281 L 294.113281 100.042969 L 294.316406 100.085938 "/>
<path style=" stroke:none;fill-rule:nonzero;fill:rgb(100%,100%,100%);fill-opacity:1;" d="M 224.773438 94.023438 C 215.996094 104.351563 210.691406 117.722656 210.691406 132.308594 C 210.691406 135.261719 210.910156 138.160156 211.328125 140.992188 L 211.464844 140.820313 L 217.363281 133.054688 L 217.421875 132.863281 L 225.5625 102.273438 L 225.589844 102.136719 L 224.839844 93.945313 L 224.773438 94.023438 "/>
<path style=" stroke:none;fill-rule:nonzero;fill:rgb(100%,100%,100%);fill-opacity:1;" d="M 245.773438 100.125 L 255.554688 112.449219 L 255.648438 112.566406 L 247.808594 136.691406 L 247.726563 136.738281 L 232.320313 146.621094 L 232.144531 146.710938 L 219.257813 133.1875 L 219.289063 133.109375 L 226.789063 104.9375 L 226.808594 104.878906 L 245.683594 100.039063 L 245.773438 100.125 "/>
<path style=" stroke:none;fill-rule:nonzero;fill:rgb(100%,100%,100%);fill-opacity:1;" d="M 257.160156 83.074219 L 282.828125 83.074219 L 282.871094 83.140625 L 292.660156 98.578125 L 292.761719 98.738281 L 282.703125 111.410156 L 282.632813 111.5 L 257.1875 111.5 L 257.105469 111.394531 L 247.132813 98.824219 L 247.0625 98.734375 L 256.992188 83.078125 L 257.160156 83.074219 "/>
<path style=" stroke:none;fill-rule:nonzero;fill:rgb(100%,100%,100%);fill-opacity:1;" d="M 247.332031 77.578125 L 255.761719 81.195313 L 255.820313 81.203125 L 284.046875 81.203125 L 284.148438 81.160156 L 292.308594 77.660156 L 292.507813 77.578125 C 285.539063 74.695313 277.910156 73.101563 269.910156 73.101563 C 261.992188 73.101563 254.433594 74.660156 247.523438 77.492188 L 247.332031 77.578125 "/>
<path style=" stroke:none;fill-rule:nonzero;fill:rgb(100%,100%,100%);fill-opacity:1;" d="M 232.746094 148.59375 L 232.863281 166.53125 L 232.851563 166.632813 L 251.433594 179.667969 L 251.488281 179.707031 L 268.910156 172.800781 L 268.976563 172.773438 L 268.976563 153.761719 L 268.964844 153.648438 L 248.28125 138.613281 L 248.199219 138.660156 L 232.863281 148.5 L 232.746094 148.59375 "/>
<path style=" stroke:none;fill-rule:nonzero;fill:rgb(100%,100%,100%);fill-opacity:1;" d="M 221.914063 166.78125 L 231.917969 168.328125 L 232.039063 168.351563 L 251.136719 181.746094 L 251.21875 181.820313 L 256.015625 189.867188 L 255.945313 189.855469 C 241.976563 186.46875 229.929688 178.113281 221.785156 166.773438 L 221.914063 166.78125 "/>
<path style=" stroke:none;fill-rule:nonzero;fill:rgb(13.699341%,12.199402%,12.5%);fill-opacity:1;" d="M 155.050781 179.664063 L 155.050781 112.683594 L 200.972656 112.683594 L 200.972656 123.992188 L 168.605469 123.992188 L 168.605469 139.886719 L 196.585938 139.886719 L 196.585938 151.195313 L 168.605469 151.195313 L 168.605469 179.664063 L 155.050781 179.664063 "/>
<path style=" stroke:none;fill-rule:nonzero;fill:rgb(13.699341%,12.199402%,12.5%);fill-opacity:1;" d="M 382.449219 154.996094 L 395.613281 159.09375 C 393.597656 166.449219 390.253906 171.910156 385.570313 175.480469 C 380.890625 179.050781 374.953125 180.835938 367.761719 180.835938 C 358.855469 180.835938 351.539063 177.789063 345.808594 171.699219 C 340.074219 165.609375 337.210938 157.285156 337.210938 146.71875 C 337.210938 135.546875 340.089844 126.867188 345.851563 120.6875 C 351.613281 114.503906 359.1875 111.414063 368.578125 111.414063 C 376.777344 111.414063 383.4375 113.835938 388.558594 118.679688 C 391.605469 121.539063 393.890625 125.652344 395.417969 131.011719 L 382.058594 134.230469 C 381.265625 130.765625 379.609375 128.03125 377.089844 126.027344 C 374.570313 124.019531 371.511719 123.015625 367.910156 123.015625 C 362.933594 123.015625 358.898438 124.804688 355.796875 128.371094 C 352.699219 131.941406 351.152344 137.722656 351.152344 145.714844 C 351.152344 154.195313 352.671875 160.234375 355.71875 163.835938 C 358.765625 167.433594 362.722656 169.230469 367.597656 169.230469 C 371.195313 169.230469 374.285156 168.089844 376.875 165.800781 C 379.464844 163.511719 381.320313 159.910156 382.449219 154.996094 "/>
<path style=" stroke:none;fill-rule:nonzero;fill:rgb(100%,90.59906%,8.599854%);fill-opacity:1;" d="M 210.03125 443.042969 L 210.03125 198.589844 L 210.085938 198.59375 C 229.046875 200.890625 249.28125 202.375 269.914063 202.375 C 290.527344 202.375 310.742188 200.894531 329.6875 198.597656 L 329.800781 198.589844 L 329.800781 443.019531 L 329.738281 443.089844 C 310.066406 460.773438 287.898438 477.324219 269.914063 489.910156 C 251.9375 477.328125 229.769531 460.78125 210.101563 443.097656 L 210.03125 443.042969 "/>
<path style=" stroke:none;fill-rule:nonzero;fill:rgb(14.898682%,24.299622%,59.999084%);fill-opacity:1;" d="M 206.285156 439.605469 L 206.285156 198.125 L 206.183594 198.105469 C 162.726563 192.535156 126.410156 182.859375 108.078125 177.398438 C 107.621094 180.785156 107.191406 185.210938 106.800781 189.261719 L 106.132813 195.949219 C 104.964844 206.433594 104.375 216.863281 104.375 226.945313 C 104.375 250.011719 105.839844 267.21875 108.988281 281.09375 C 121.972656 338.324219 155.1875 382.898438 182.671875 415.335938 C 189.523438 423.414063 197.550781 431.5625 206.171875 439.519531 L 206.285156 439.605469 "/>
<path style=" stroke:none;fill-rule:nonzero;fill:rgb(14.898682%,24.299622%,59.999084%);fill-opacity:1;" d="M 333.546875 198.125 L 333.546875 439.628906 L 333.601563 439.570313 C 342.242188 431.597656 350.292969 423.433594 357.160156 415.335938 C 384.644531 382.898438 417.859375 338.324219 430.84375 281.09375 C 433.992188 267.21875 435.457031 250.011719 435.457031 226.945313 C 435.457031 216.863281 434.867188 206.433594 433.699219 195.949219 L 433.027344 189.246094 C 432.636719 185.203125 432.207031 180.78125 431.753906 177.398438 C 413.417969 182.859375 377.082031 192.539063 333.605469 198.109375 L 333.546875 198.125 "/>
</g>
</svg>
