<?xml version="1.0" encoding="utf-8"?>
<!DOCTYPE svg PUBLIC "-//W3C//DTD SVG 1.0//EN" "http://www.w3.org/TR/2001/REC-SVG-20010904/DTD/svg10.dtd">
<svg version="1.0" xmlns="http://www.w3.org/2000/svg" width="500px" height="500px" viewBox="0 0 500 500" preserveAspectRatio="xMidYMid meet">
 <g fill="#ffffff">
  <path d="M0 250 l0 -250 250 0 250 0 0 250 0 250 -250 0 -250 0 0 -250z m124.80 102.75 c8.55 -1.50 15.80 -6.35 19.10 -12.80 2.95 -5.90 3.10 -7.65 3 -35.30 l-0.15 -24.90 -5.60 -0.15 -5.65 -0.15 0 25.50 c0 16.85 -0.20 26.40 -0.55 28.10 -0.75 3.50 -3.55 6.55 -7.35 8 -2.25 0.90 -3.95 1.10 -8.10 1.15 -4.60 0 -5.60 -0.15 -8.05 -1.30 -3.60 -1.65 -6.10 -4.25 -7.10 -7.45 -0.75 -2.20 -0.85 -5.25 -0.85 -21.25 l0 -18.70 -5.75 0 -5.75 0 0 18.50 c0 11.65 0.20 19.45 0.55 21.10 2 9.50 10.10 17.30 20.05 19.35 5.85 1.20 6.80 1.20 12.20 0.30z m100.45 -36.25 l0 -36.75 -5.45 -0.15 c-4.05 -0.10 -5.60 0.05 -5.90 0.50 -0.20 0.35 -0.40 11.65 -0.40 25.05 l0 24.40 -1.80 -0.15 c-1.75 -0.15 -2.10 -0.65 -19.10 -24.90 l-17.35 -24.75 -5.85 -0.15 -5.90 -0.15 0 27.80 0 27.80 5.90 -0.15 5.85 -0.15 0 -15.85 0 -15.90 1.75 0 c1.75 0.05 1.85 0.15 18 23.35 8.95 12.85 16.90 24.20 17.65 25.25 l1.40 1.95 5.60 -0.15 5.60 -0.15 0 -36.75z m46.50 35.85 c0.15 -0.60 0.25 -2.80 0.15 -4.85 l-0.15 -3.75 -4.25 -0.25 -4.25 -0.25 -0.15 -31.90 -0.10 -31.90 -5.90 0.15 -5.85 0.15 -0.15 31.90 -0.10 31.85 -4.20 0 c-3.35 0 -4.25 0.15 -4.50 0.80 -0.40 1 -0.40 6.60 0 8.10 l0.30 1.10 14.45 0 14.45 0 0.25 -1.15z m27.15 -14.85 l0.10 -15.75 14.25 0.20 c7.85 0.05 14.85 0 15.50 -0.15 1.25 -0.30 1.25 -0.40 1.25 -5.55 l0 -5.25 -15.50 0 -15.50 0 0 -10.25 0 -10.25 10.75 0 10.75 0 0 -5.50 0 -5.50 -16.60 0.10 -16.65 0.15 -0.15 36.25 c-0.05 19.95 0 36.55 0.15 36.90 0.15 0.45 1.65 0.60 5.85 0.50 l5.65 -0.15 0.15 -15.75z m87.10 -2.25 c0.15 -10.20 0.45 -18.30 0.75 -18.75 0.25 -0.40 3.75 -5.35 7.75 -11 4 -5.65 7.45 -10.55 7.65 -10.85 0.30 -0.50 -1 -0.65 -6 -0.65 l-6.40 0 -3.90 5.55 c-3.90 5.45 -3.95 5.50 -5.75 5.35 -1.80 -0.15 -2.10 -0.55 -10.80 -12.75 l-9 -12.65 -6.45 0 c-5.10 0 -6.35 0.15 -6 0.65 0.30 0.30 6.40 8.85 13.55 18.95 l13.10 18.35 0 17.70 c0 9.70 0.15 17.85 0.35 18.05 0.20 0.15 2.70 0.25 5.60 0.20 l5.30 -0.15 0.25 -18z m-81.60 -84.25 c0.05 -5.60 0.30 -10.40 0.55 -10.65 0.20 -0.20 2.20 -0.25 4.40 -0.05 l4 0.35 4.70 10.25 c2.60 5.60 4.95 10.30 5.25 10.45 0.30 0.10 1.80 0.15 3.30 0.05 l2.75 -0.15 -4.40 -9.50 c-2.85 -6.10 -4.40 -10.15 -4.45 -11.25 0 -1.60 0.25 -1.90 2.80 -3.45 8.40 -5 8.65 -16.55 0.45 -22.15 -3.50 -2.35 -6.60 -2.90 -16.90 -2.90 l-9.35 0 0 3.25 0 3.25 9.55 0 c10.30 0 12.70 0.40 14.55 2.35 1.50 1.60 1.90 6.75 0.65 9.30 -1.40 2.95 -3.15 3.35 -14.75 3.35 l-10 0 0 13.65 c0 7.55 0.15 13.85 0.35 14.05 0.20 0.20 1.70 0.30 3.40 0.20 l3 -0.15 0.15 -10.25z m69.20 9.05 c9.15 -3.15 15.55 -11.95 16.25 -22.30 0.80 -11.15 -7.20 -22.15 -18.10 -25 -8.75 -2.25 -18.65 1.40 -24 8.85 -7.55 10.45 -6.25 24.70 3 33.30 6.55 6.15 14.70 7.95 22.85 5.15z m-251.10 -2.80 c0.35 -0.40 1.20 -0.75 1.90 -0.75 0.70 0 2.50 -0.35 4.05 -0.80 3.15 -0.90 3.35 -1 8.95 -3.30 0.85 -0.35 1.60 -0.80 1.60 -0.95 0 -0.20 0.40 -0.45 0.90 -0.65 2.80 -0.90 6.10 -3.45 12.45 -9.55 8.20 -7.85 14.55 -17.90 16.90 -26.80 1.30 -5.05 0.85 -4.80 7.35 -3.75 13.95 2.20 24.60 7.20 33.30 15.70 7.10 6.95 11.30 14.85 14.05 26.25 0.30 1.30 0.55 3.05 0.55 3.90 l0 1.60 2.15 -0.40 c1.15 -0.20 3.10 -0.55 4.35 -0.70 2.45 -0.35 2.40 -0.20 1.55 -4.40 -3.65 -18.05 -17.50 -36.05 -34.20 -44.45 -8 -4.05 -13.30 -5.60 -24.20 -7 l-2.05 -0.30 -0.30 -3.80 c-0.70 -8.90 -3.55 -18.30 -7.80 -25.65 -3.15 -5.50 -5.65 -8.70 -10.70 -13.75 -7.70 -7.65 -15.55 -12.25 -26.20 -15.25 -3.45 -0.95 -5.15 -1.30 -11.70 -2.30 l-1.90 -0.25 0 4.45 0 4.45 4.65 0.65 c4.90 0.65 10.45 1.85 12.10 2.55 4.75 2.05 9 4.20 10.65 5.35 12.35 8.75 18.65 19.10 21.05 34.55 1.70 11.05 -0.80 24 -6.45 33.15 -3.75 6.10 -8.75 11.50 -13.75 14.85 -8 5.30 -16.10 8.20 -25.10 8.95 l-3.15 0.25 0 4.10 c0 2.30 0.15 4.30 0.35 4.45 0.15 0.20 2.05 0.35 4.15 0.35 2.85 0 4.05 -0.20 4.50 -0.75z m140.30 -0.50 c4.15 -2.05 8.05 -6.75 8.95 -10.80 0.65 -2.75 0.35 -4.90 -1 -7.90 -5.45 -11.90 -19.65 -12.15 -26 -0.50 -3.95 7.25 0.75 17 9.50 19.75 3.15 1 5.80 0.85 8.55 -0.55z m-76 -65.45 c1.35 -0.40 3.85 -0.85 5.60 -1.05 1.70 -0.20 3.10 -0.50 3.10 -0.75 0 -0.20 1.05 -0.65 2.40 -1 2.85 -0.70 8.10 -3.20 10.85 -5.15 1.10 -0.75 2.80 -1.90 3.75 -2.55 2.80 -1.90 9.70 -9.25 12.15 -12.95 5.35 -8.05 8.65 -17.70 8.95 -26.10 l0.15 -3.50 -4.50 0 -4.50 0 -0.30 5.25 c-0.40 6.05 -1.25 9.55 -3.70 14.85 -4.15 9 -10.90 15.70 -20.25 20.10 -3.65 1.70 -10.15 3.55 -12.60 3.55 -0.90 0 -2.80 0.25 -4.20 0.60 l-2.60 0.60 0.25 3.80 c0.10 2.05 0.30 4.05 0.45 4.40 0.25 0.80 1.95 0.75 5 -0.10z m5.10 -26.85 c0.10 -0.25 0.50 -0.45 0.85 -0.45 1.80 0 7.35 -4.15 9.70 -7.25 5.30 -7.10 5.90 -14.60 1.80 -21.80 -1.80 -3.20 -6 -7.20 -9.45 -9.05 -2.55 -1.35 -3.75 -1.60 -7.30 -1.80 -6.15 -0.30 -10.05 1.15 -14.85 5.55 -3.95 3.60 -7.15 10.35 -7.15 15.05 0 2.25 1.90 7.95 3.45 10.50 1.20 1.85 5 5.65 6.60 6.55 5.40 3.05 8.15 3.80 12.70 3.40 1.95 -0.15 3.60 -0.45 3.65 -0.70z"/>
  <path d="M362.35 255 c-5.35 -0.95 -8.85 -3.75 -11.30 -9 -1.20 -2.50 -1.30 -3.30 -1.30 -9.25 0 -5.95 0.10 -6.75 1.30 -9.25 1.80 -3.85 4 -6.20 7.30 -7.85 2.50 -1.20 3.40 -1.35 7.85 -1.35 6.15 0 9.20 1.10 12.35 4.55 3.40 3.70 4.15 5.95 4.35 13.15 0.15 5.45 0.05 6.60 -0.90 9.10 -1.35 3.65 -4.75 7.45 -7.85 8.80 -2.80 1.20 -8.40 1.70 -11.80 1.10z m5.85 -16.30 c1.70 -1.70 1.65 -2.30 -0.25 -3.95 -1.40 -1.15 -1.70 -1.20 -2.60 -0.60 -0.55 0.35 -1.35 1.15 -1.70 1.70 -0.60 0.90 -0.55 1.20 0.60 2.60 1.65 1.90 2.25 1.95 3.95 0.25z"/>
  <path d="M179.25 154.55 c-3.90 -2.75 -5.55 -8.10 -4.25 -13.55 0.85 -3.45 3.20 -6.05 6.80 -7.55 2.55 -1 3.15 -1.05 6.15 -0.60 4.05 0.65 6.95 2.30 8.60 5 1 1.65 1.15 2.55 1.20 6.75 0 4.55 -0.10 4.90 -1.50 6.95 -2.35 3.35 -5 4.45 -10.45 4.45 -4.20 -0.05 -4.70 -0.15 -6.55 -1.45z"/>
 </g>
 <g fill="#2a9b59">
  <path d="M115 354.70 c-10.75 -1.60 -18.30 -6.65 -22.15 -14.80 -2.15 -4.65 -2.35 -6.80 -2.35 -27.90 l0 -20 7.25 0 7.25 0 0 18.70 c0 16 0.10 19.05 0.85 21.25 1.70 5.30 7 8.70 13.60 8.65 7.40 0 12.80 -3.50 14 -9.05 0.35 -1.70 0.55 -11.25 0.55 -28.10 l0 -25.50 7.15 0.15 7.10 0.15 0.15 26.40 c0.10 29.30 0 30.85 -3 36.80 -2.10 4.05 -6.30 8 -11.05 10.25 -5.20 2.55 -13.65 3.80 -19.35 3z"/>
  <path d="M211.15 353.10 c-0.80 -1.05 -8.70 -12.40 -17.65 -25.25 -8.95 -12.80 -16.35 -23.35 -16.50 -23.35 -0.15 0 -0.25 7.15 -0.25 15.85 l0 15.90 -7.35 0.15 -7.40 0.15 0 -29.30 0 -29.30 7.40 0.15 7.35 0.15 17.50 25 17.50 24.95 0.25 -24.95 c0.15 -13.75 0.30 -25.05 0.40 -25.15 0.05 -0.05 3.30 -0.05 7.25 0 l7.10 0.15 0 38.25 0 38.25 -7.10 0.15 -7.10 0.15 -1.40 -1.95z"/>
  <path d="M240.80 353.90 c-0.40 -1.50 -0.40 -10.10 0 -11.10 0.25 -0.65 1.15 -0.80 4.50 -0.80 l4.20 0 0.10 -31.85 0.15 -31.90 7.35 -0.15 7.40 -0.15 0.10 31.90 0.15 31.90 4.25 0.25 4.25 0.25 0.15 5.25 c0.10 2.90 0 5.75 -0.15 6.40 l-0.25 1.10 -15.95 0 -15.95 0 -0.30 -1.10z"/>
  <path d="M285.75 354.40 c-0.15 -0.35 -0.20 -17.65 -0.15 -38.40 l0.15 -37.75 18.15 -0.15 18.10 -0.10 0 7 0 7 -10.75 0 -10.75 0 0 8.75 0 8.80 14.90 -0.05 c8.15 0 15.15 0 15.50 0 0.45 0 0.60 1.70 0.60 6.75 0 6.55 -0.05 6.75 -1.10 7 -0.65 0.15 -7.60 0.20 -15.50 0.15 l-14.40 -0.15 -0.10 15.75 -0.15 15.75 -7.15 0.15 c-5.40 0.10 -7.20 0 -7.35 -0.50z"/>
  <path d="M373.35 354.70 c-0.20 -0.20 -0.35 -8.35 -0.35 -18.05 l0 -17.70 -14.25 -19.95 c-7.85 -10.95 -14.25 -20.20 -14.25 -20.45 0 -0.35 2.90 -0.55 8.65 -0.55 l8.65 0 8.90 12.50 c4.85 6.85 9.05 12.60 9.30 12.75 0.25 0.15 2.20 -2.20 4.35 -5.25 l3.90 -5.50 8.90 0 c4.85 0 8.85 0.10 8.85 0.20 0 0.15 -3.90 5.70 -8.65 12.40 -4.75 6.70 -8.85 12.50 -9.10 12.90 -0.30 0.40 -0.60 8.55 -0.75 18.75 l-0.25 18 -6.80 0.15 c-3.70 0.05 -6.90 -0.05 -7.10 -0.20z"/>
  <path d="M296.35 262.70 c-0.20 -0.20 -0.35 -7.20 -0.35 -15.55 l0 -15.15 10 0 c11.60 0 13.35 -0.40 14.75 -3.35 1.05 -2.15 0.70 -4.85 -0.75 -6.40 -1.75 -1.85 -4.25 -2.25 -14.45 -2.25 l-9.55 0 0 -4.75 0 -4.75 10.85 0 c11.90 0 14.75 0.45 18.40 2.90 6.10 4.20 8 12.95 4.40 20.10 -1.30 2.50 -3.30 4.35 -7.05 6.45 -0.55 0.30 0.45 2.85 4.35 11.35 2.75 6 4.85 11.10 4.60 11.35 -0.20 0.20 -2.60 0.30 -5.30 0.25 l-4.90 -0.15 -4.75 -10.25 c-2.55 -5.65 -4.75 -10.30 -4.75 -10.35 -0.05 -0.05 -1.35 -0.15 -2.85 -0.20 l-2.75 -0.15 -0.25 10.45 -0.25 10.50 -4.50 0.15 c-2.50 0.05 -4.70 0 -4.90 -0.20z"/>
  <path d="M360 262.35 c-4.05 -0.95 -7.30 -2.75 -10.75 -5.95 -5.50 -5.10 -7.95 -11.30 -7.95 -19.90 0 -15.60 10.05 -26 25.05 -26 7.25 0 12.85 2.20 17.65 7 5.35 5.30 7.75 11.90 7.40 20.25 -0.45 9.80 -4.50 17.15 -12.05 21.95 -4.35 2.70 -13.55 4 -19.35 2.65z m12.65 -10 c3.10 -1.30 6.50 -5.05 7.85 -8.75 1.45 -3.75 1.25 -11.10 -0.35 -14.70 -2.60 -5.80 -7.70 -9.05 -14.05 -9.05 -6.25 0.05 -10.70 3 -13.55 9.15 -1.10 2.40 -1.30 3.40 -1.30 7.75 0 4.35 0.20 5.35 1.30 7.75 2.45 5.30 6.10 8.15 11.30 8.95 3.15 0.50 5.85 0.15 8.80 -1.10z"/>
  <path d="M362.80 239.95 c-1.80 -2.15 -1.75 -4.55 0.15 -6.50 2 -1.95 4.45 -2 6.50 -0.05 2.20 2 2.25 4.75 0.25 6.80 -2 1.95 -5.15 1.85 -6.90 -0.25z"/>
  <path d="M112.35 259.15 c-0.20 -0.15 -0.35 -2.85 -0.35 -6 l0 -5.65 2.15 -0.05 c1.15 -0.05 2.55 -0.15 3.10 -0.25 0.55 -0.10 2.15 -0.40 3.50 -0.65 6.40 -1.10 13.25 -4 19.50 -8.15 3.75 -2.55 6.15 -4.75 9.50 -8.95 6.25 -7.75 8.75 -13.50 10.75 -24.65 0.90 -5.30 0.45 -10.90 -1.60 -18.75 -2.25 -8.90 -8.15 -18.25 -14.85 -23.60 -5.25 -4.25 -7.50 -5.55 -15.30 -8.95 -2.30 -1 -8.10 -2.10 -14.35 -2.75 -0.80 -0.05 -1.60 -0.15 -1.90 -0.20 -0.30 -0.05 -0.50 -2.45 -0.50 -6.10 l0 -6.05 3.40 0.25 c11.90 0.90 22.05 4.40 31.80 10.95 3.60 2.45 11.25 10 14.15 13.90 6.85 9.35 11.05 20.60 11.95 32.10 l0.30 3.80 2.05 0.30 c10.90 1.40 16.20 2.95 24.20 7 12.10 6.05 23.70 18.10 29.40 30.50 2.95 6.35 6.05 17.15 5.70 19.80 -0.15 1.05 -0.50 1.25 -2.20 1.40 -1.10 0.10 -2.20 0.35 -2.50 0.55 -0.25 0.25 -2 0.45 -3.85 0.50 l-3.40 0.10 0 -1.50 c0 -1.70 -0.65 -4.75 -2.10 -9.55 -5.50 -18.40 -21.70 -31.95 -42.60 -35.75 -2.20 -0.40 -4.10 -0.65 -4.20 -0.50 -0.15 0.10 -0.65 0 -1.15 -0.25 -0.80 -0.45 -1 -0.10 -1.95 3.10 -3.10 10.75 -8.40 19.30 -17.15 27.65 -6.35 6.10 -9.65 8.65 -12.45 9.55 -0.50 0.20 -0.90 0.45 -0.90 0.65 0 0.15 -0.75 0.60 -1.60 0.95 -3.45 1.40 -4.20 1.75 -5 2.15 -0.50 0.25 -1.30 0.45 -1.80 0.45 -0.50 0 -1.10 0.15 -1.30 0.35 -0.15 0.20 -0.80 0.40 -1.40 0.50 -0.60 0.10 -1.35 0.40 -1.75 0.70 -0.35 0.30 -1.20 0.45 -1.90 0.35 -0.70 -0.15 -1.50 0.05 -1.80 0.40 -0.40 0.50 -2 0.70 -5.95 0.70 -2.90 0 -5.50 -0.15 -5.65 -0.35z"/>
  <path d="M252.75 258.80 c-3.05 -0.95 -6.10 -3.10 -7.80 -5.45 -2.55 -3.55 -3.10 -5.20 -3.15 -10.10 0 -4.05 0.15 -4.75 1.40 -7.10 1.85 -3.35 4.40 -5.90 7.40 -7.45 3.20 -1.65 10.45 -1.70 13.90 -0.15 6.35 2.85 10.35 10.65 9 17.55 -0.70 3.65 -1.95 6 -4.65 8.80 -3.15 3.25 -6.30 4.60 -10.55 4.55 -1.95 0 -4.45 -0.30 -5.55 -0.65z"/>
  <path d="M180.30 192.90 c-0.15 -0.35 -0.35 -2.45 -0.55 -4.65 -0.65 -7.25 -0.70 -6.90 1 -7.05 8.15 -0.75 13.45 -2 18.25 -4.25 9.35 -4.40 16.10 -11.15 20.25 -20.10 2.45 -5.30 3.30 -8.80 3.70 -14.85 l0.30 -5.25 5.80 -0.15 c4.25 -0.10 5.95 0.05 6.30 0.50 0.65 0.80 -0.40 10.70 -1.60 15.15 -1.10 4.35 -1.95 6.65 -4 10.85 -3.05 6.40 -10.70 15.75 -15.75 19.20 -4.95 3.40 -6 4.05 -8.95 5.55 -1.80 0.90 -3.60 1.65 -4.05 1.65 -0.45 0 -1 0.15 -1.20 0.35 -0.15 0.20 -0.85 0.40 -1.45 0.50 -0.60 0.10 -1.15 0.40 -1.25 0.65 -0.10 0.30 -0.85 0.50 -1.60 0.50 -0.80 0 -1.60 0.25 -1.80 0.55 -0.20 0.30 -1 0.45 -1.95 0.30 -0.90 -0.15 -2.20 0 -2.85 0.35 -1.70 0.90 -8.35 1.05 -8.60 0.20z"/>
  <path d="M181.75 166.45 c-3 -0.80 -4.45 -1.40 -7.70 -3.20 -1.60 -0.90 -5.40 -4.70 -6.60 -6.55 -5.65 -9.15 -4.05 -21.40 3.70 -28.55 5.05 -4.65 8.50 -5.80 16.30 -5.55 5.40 0.15 6 0.30 8.85 1.80 4.95 2.65 9.55 7.90 11.15 12.75 3.60 10.85 -1.05 22.10 -11.40 27.70 -0.65 0.35 -1.50 0.65 -1.85 0.65 -0.40 0 -0.70 0.25 -0.70 0.50 0 0.30 -0.85 0.50 -1.90 0.50 -1.05 0 -2.10 0.15 -2.30 0.40 -0.65 0.60 -4.10 0.40 -7.55 -0.45z m9.30 -13.10 c1.20 -0.65 2.90 -2.15 3.70 -3.30 1.30 -1.90 1.50 -2.55 1.45 -5.45 -0.05 -4 -1.35 -6.55 -4.30 -8.40 -3 -1.90 -6.05 -2.30 -8.85 -1.10 -3.35 1.40 -5.45 3.65 -6.35 6.80 -1.25 4.20 0.30 8.50 4.05 11.15 2.70 1.90 7 2 10.30 0.30z"/>
 </g>
</svg>